{
  "accessors": [
    {
      "bufferView": 2,
      "componentType": 5126,
      "count": 63463,
      "max": [
        4536.8359375,
        -2.56787109375,
        4862.416015625
      ],
      "min": [
        -4536.83544921875,
        -9195.8291015625,
        -4882.755859375
      ],
      "type": "VEC3"
    },
    {
      "bufferView": 2,
      "byteOffset": 761556,
      "componentType": 5126,
      "count": 63463,
      "max": [
        1,
        1,
        1
      ],
      "min": [
        -1,
        -1,
        -1
      ],
      "type": "VEC3"
    },
    {
      "bufferView": 3,
      "componentType": 5126,
      "count": 63463,
      "max": [
        1,
        1,
        1,
        1
      ],
      "min": [
        -1,
        -1,
        -1,
        -1
      ],
      "type": "VEC4"
    },
    {
      "bufferView": 1,
      "componentType": 5126,
      "count": 63463,
      "max": [
        0.99182134866714478,
        0.9948580265045166
      ],
      "min": [
        0.0047284509055316448,
        0.025863409042358398
      ],
      "type": "VEC2"
    },
    {
      "bufferView": 1,
      "byteOffset": 507704,
      "componentType": 5126,
      "count": 63463,
      "max": [
        0.99182134866714478,
        0.9948580265045166
      ],
      "min": [
        0.0047284509055316448,
        0.025863409042358398
      ],
      "type": "VEC2"
    },
    {
      "bufferView": 1,
      "byteOffset": 1015408,
      "componentType": 5126,
      "count": 63463,
      "max": [
        0.99182134866714478,
        0.9948580265045166
      ],
      "min": [
        0.0047284509055316448,
        0.025863409042358398
      ],
      "type": "VEC2"
    },
    {
      "bufferView": 0,
      "componentType": 5125,
      "count": 298194,
      "max": [
        63462
      ],
      "min": [
        0
      ],
      "type": "SCALAR"
    }
  ],
  "asset": {
    "extras": {
      "author": "e-sfera (https://sketchfab.com/kresimir)",
      "license": "CC-BY-4.0 (http://creativecommons.org/licenses/by/4.0/)",
      "source": "https://sketchfab.com/3d-models/statue-of-liberty-low-poly-e899267a0951468aaa868e5daf22c290",
      "title": "Statue Of Liberty Low Poly"
    },
    "generator": "Sketchfab-10.30.0",
    "version": "2.0"
  },
  "bufferViews": [
    {
      "buffer": 0,
      "byteLength": 1192776,
      "byteOffset": 0,
      "name": "floatBufferViews",
      "target": 34963
    },
    {
      "buffer": 0,
      "byteLength": 1523112,
      "byteOffset": 1192776,
      "byteStride": 8,
      "name": "floatBufferViews",
      "target": 34962
    },
    {
      "buffer": 0,
      "byteLength": 1523112,
      "byteOffset": 2715888,
      "byteStride": 12,
      "name": "floatBufferViews",
      "target": 34962
    },
    {
      "buffer": 0,
      "byteLength": 1015408,
      "byteOffset": 4239000,
      "byteStride": 16,
      "name": "floatBufferViews",
      "target": 34962
    }
  ],
  "buffers": [
    {
      "byteLength": 5254408,
      "uri": "scene.bin"
    }
  ],
  "extensionsRequired": [
    "KHR_materials_pbrSpecularGlossiness"
  ],
  "extensionsUsed": [
    "KHR_materials_pbrSpecularGlossiness"
  ],
  "images": [
    {
      "uri": "textures/Statue_of_Liberty_VRmtl_001_diffuse.png"
    },
    {
      "uri": "textures/Statue_of_Liberty_VRmtl_001_specularGlossiness.png"
    },
    {
      "uri": "textures/Statue_of_Liberty_VRmtl_001_normal.png"
    }
  ],
  "materials": [
    {
      "doubleSided": true,
      "emissiveFactor": [
        0,
        0,
        0
      ],
      "extensions": {
        "KHR_materials_pbrSpecularGlossiness": {
          "diffuseFactor": [
            1,
            1,
            1,
            1
          ],
          "diffuseTexture": {
            "index": 0,
            "texCoord": 0
          },
          "glossinessFactor": 0.15669911486433269,
          "specularFactor": [
            0.050000000000000003,
            0.050000000000000003,
            0.050000000000000003
          ],
          "specularGlossinessTexture": {
            "index": 1,
            "texCoord": 0
          }
        }
      },
      "name": "Statue_of_Liberty_VRmtl_001",
      "normalTexture": {
        "index": 2,
        "scale": 1,
        "texCoord": 0
      }
    }
  ],
  "meshes": [
    {
      "name": "Statue_of_Liberty_Statue_of_Liberty_VRmtl_001_0",
      "primitives": [
        {
          "attributes": {
            "NORMAL": 1,
            "POSITION": 0,
            "TANGENT": 2,
            "TEXCOORD_0": 3,
            "TEXCOORD_1": 4,
            "TEXCOORD_2": 5
          },
          "indices": 6,
          "material": 0,
          "mode": 4
        }
      ]
    }
  ],
  "nodes": [
    {
      "children": [
        1
      ],
      "name": "RootNode (gltf orientation matrix)",
      "rotation": [
        -0.70710678118654746,
        -0,
        -0,
        0.70710678118654757
      ]
    },
    {
      "children": [
        2
      ],
      "name": "RootNode (model correction matrix)"
    },
    {
      "children": [
        3
      ],
      "matrix": [
        1,
        0,
        0,
        0,
        0,
        0,
        1,
        0,
        0,
        -1,
        0,
        0,
        0,
        0,
        0,
        1
      ],
      "name": "204a712337734b67a31c8a5d360130ef.fbx"
    },
    {
      "children": [
        4,
        6
      ],
      "name": "RootNode"
    },
    {
      "children": [
        5
      ],
      "matrix": [
        -0.029583699671128061,
        -0.24367143806706251,
        -0.96940653751875328,
        0,
        -0.0074327415247183726,
        0.96985784023759369,
        -0.24355805074580683,
        0,
        0.99953467126818318,
        -2.2204460492503131e-16,
        -0.030503129885386837,
        0,
        484.63983154296875,
        8296.29296875,
        19031.2578125,
        1
      ],
      "name": "CINEMA_4D_Editor"
    },
    {
      "name": ""
    },
    {
      "children": [
        7
      ],
      "matrix": [
        1,
        0,
        0,
        0,
        0,
        -1,
        -1.2246467991473532e-16,
        0,
        0,
        1.2246467991473532e-16,
        -1,
        0,
        -0.000244140625,
        6.2271580587134495e-16,
        -10.169720649719238,
        1
      ],
      "name": "Statue_of_Liberty"
    },
    {
      "mesh": 0,
      "name": "Statue_of_Liberty_Statue_of_Liberty_VRmtl_001_0"
    }
  ],
  "samplers": [
    {
      "magFilter": 9729,
      "minFilter": 9987,
      "wrapS": 10497,
      "wrapT": 10497
    }
  ],
  "scene": 0,
  "scenes": [
    {
      "name": "OSG_Scene",
      "nodes": [
        0
      ]
    }
  ],
  "textures": [
    {
      "sampler": 0,
      "source": 0
    },
    {
      "sampler": 0,
      "source": 1
    },
    {
      "sampler": 0,
      "source": 2
    }
  ]
}

